<?xml version="1.0" standalone="no"?>
<!DOCTYPE svg PUBLIC "-//W3C//DTD SVG 20010904//EN"
 "http://www.w3.org/TR/2001/REC-SVG-20010904/DTD/svg10.dtd">
<svg version="1.0" xmlns="http://www.w3.org/2000/svg"
 width="700.000000pt" height="700.000000pt" viewBox="0 0 700.000000 700.000000"
 preserveAspectRatio="xMidYMid meet">
<metadata>
Created by potrace 1.14, written by Peter Selinger 2001-2017
</metadata>
<g transform="translate(0.000000,700.000000) scale(0.100000,-0.100000)"
fill="#000000" stroke="none">
<path d="M6459 6996 c-2 -2 -47 -7 -99 -11 -52 -4 -97 -8 -100 -10 -3 -2 -39
-6 -80 -10 -41 -4 -77 -8 -80 -10 -3 -1 -36 -6 -75 -10 -38 -4 -72 -8 -76 -10
-3 -2 -28 -7 -55 -10 -27 -3 -60 -8 -74 -11 -50 -9 -76 -14 -110 -18 -19 -3
-45 -7 -56 -10 -12 -2 -39 -7 -60 -10 -22 -4 -46 -9 -54 -11 -8 -3 -32 -7 -52
-9 -20 -3 -54 -9 -75 -15 -21 -5 -51 -12 -68 -15 -16 -3 -46 -8 -65 -11 -19
-4 -53 -11 -75 -17 -42 -11 -65 -16 -105 -24 -14 -3 -70 -16 -125 -30 -55 -14
-109 -27 -120 -30 -30 -6 -284 -77 -420 -117 -664 -198 -1354 -507 -1840 -824
-295 -193 -511 -367 -734 -593 -429 -432 -716 -912 -869 -1450 -26 -90 -34
-123 -48 -185 -11 -50 -35 -190 -39 -230 -4 -27 -8 -57 -10 -65 -8 -31 -18
-219 -19 -335 0 -157 10 -309 29 -442 21 -144 19 -132 50 -263 31 -128 55
-163 118 -175 94 -18 12 -94 1264 1158 886 885 1163 1157 1198 1173 102 48
229 2 283 -101 21 -40 24 -131 6 -175 -10 -24 -587 -607 -1783 -1805 -1437
-1438 -1773 -1779 -1792 -1820 -20 -41 -24 -66 -24 -140 0 -78 4 -97 27 -140
62 -119 178 -186 310 -181 130 6 121 -2 709 585 l531 531 32 -19 c119 -70 245
-119 386 -147 14 -3 32 -7 40 -9 8 -2 31 -7 50 -10 19 -3 51 -10 70 -15 19 -5
64 -12 100 -15 36 -4 67 -8 70 -10 11 -7 244 -19 360 -18 122 0 310 10 340 18
8 2 38 6 65 10 75 9 118 16 135 20 8 2 31 7 50 10 193 33 532 147 747 253 162
80 363 201 410 247 59 59 66 154 16 227 -49 72 -77 81 -258 86 -188 5 -218 14
-245 75 -18 40 -18 64 0 111 17 45 3 40 525 198 55 17 105 31 110 32 25 6 133
38 155 47 14 5 34 11 45 14 11 2 81 23 155 46 74 22 149 45 165 49 135 36 286
88 316 109 50 35 228 304 247 373 28 101 -31 209 -134 249 -19 7 -135 11 -324
11 -326 1 -346 4 -380 60 -36 60 -19 137 39 171 14 8 247 81 516 161 652 195
667 201 705 239 39 39 53 69 123 262 169 463 331 1043 413 1485 3 14 11 57 19
95 7 39 17 90 20 115 4 25 9 54 12 65 8 37 52 329 59 390 3 33 8 68 10 78 2
10 6 48 9 85 3 37 8 74 11 82 2 9 6 67 9 130 5 128 -10 200 -60 286 -56 95
-169 182 -280 216 -30 9 -189 20 -196 14z"/>
</g>
</svg>
