<?xml version="1.0" standalone="no"?>
<!DOCTYPE svg PUBLIC "-//W3C//DTD SVG 20010904//EN"
 "http://www.w3.org/TR/2001/REC-SVG-20010904/DTD/svg10.dtd">
<svg version="1.0" xmlns="http://www.w3.org/2000/svg"
 width="260.000000pt" height="260.000000pt" viewBox="0 0 260.000000 260.000000"
 preserveAspectRatio="xMidYMid meet">
<metadata>
Created by potrace 1.14, written by Peter Selinger 2001-2017
</metadata>
<g transform="translate(0.000000,260.000000) scale(0.100000,-0.100000)"
fill="#000000" stroke="none">
<path d="M2338 2574 c-591 -85 -1095 -268 -1438 -523 -103 -76 -264 -240 -328
-334 -114 -166 -189 -367 -212 -565 -6 -53 -12 -113 -15 -132 -9 -79 -17 -280
-12 -280 4 0 215 207 469 460 406 403 467 460 493 460 55 -1 91 -51 73 -100
-5 -14 -305 -321 -666 -683 -361 -363 -662 -664 -668 -671 -54 -58 -41 -157
26 -191 34 -18 83 -19 113 -4 12 6 90 78 172 160 l150 148 150 6 c83 3 182 8
220 11 39 2 99 7 135 10 214 17 386 55 524 118 71 33 207 117 266 165 l25 21
-250 0 -250 1 355 119 c195 66 362 123 370 128 16 10 55 63 118 164 46 74 48
80 30 77 -7 -1 -96 -1 -198 0 l-185 2 260 131 c143 72 263 135 267 142 14 20
69 179 109 311 74 244 134 553 155 798 l7 78 -54 -2 c-30 -1 -125 -13 -211
-25z"/>
</g>
</svg>
